<svg width="18" height="17" viewBox="0 0 18 17" fill="none" xmlns="http://www.w3.org/2000/svg">
<path d="M1.77856 6.04167H16.5286M5.05634 1.125V2.76389M13.2508 1.125V2.76389M4.2369 9.31944H5.87579M4.2369 12.5972H5.87579M8.33412 9.31944H9.97301M8.33412 12.5972H9.97301M12.4313 9.31944H14.0702M12.4313 12.5972H14.0702M4.40079 15.875H13.9063C14.8242 15.875 15.2831 15.875 15.6337 15.6964C15.9421 15.5392 16.1928 15.2885 16.3499 14.9802C16.5286 14.6296 16.5286 14.1706 16.5286 13.2528V5.38611C16.5286 4.46825 16.5286 4.00932 16.3499 3.65874C16.1928 3.35036 15.9421 3.09964 15.6337 2.94252C15.2831 2.76389 14.8242 2.76389 13.9063 2.76389H4.40079C3.48292 2.76389 3.02399 2.76389 2.67341 2.94252C2.36504 3.09964 2.11432 3.35036 1.95719 3.65874C1.77856 4.00932 1.77856 4.46825 1.77856 5.38611V13.2528C1.77856 14.1706 1.77856 14.6296 1.95719 14.9802C2.11432 15.2885 2.36504 15.5392 2.67341 15.6964C3.02399 15.875 3.48292 15.875 4.40079 15.875Z" stroke="#C0C0C0" stroke-width="1.8" stroke-linecap="round" stroke-linejoin="round"/>
</svg>
