<svg width="17" height="14" viewBox="0 0 17 14" fill="none" xmlns="http://www.w3.org/2000/svg">
<path fill-rule="evenodd" clip-rule="evenodd" d="M5.38553 0.410645H12.1716C12.8156 0.410635 13.3471 0.410626 13.78 0.446C14.2297 0.48274 14.6431 0.561592 15.0313 0.759424C15.6335 1.06622 16.123 1.55576 16.4298 2.15788C16.6276 2.54614 16.7065 2.95951 16.7432 3.40918C16.7468 3.4534 16.7501 3.49864 16.753 3.54493C16.7539 3.55579 16.7545 3.56666 16.755 3.57753C16.7786 3.97783 16.7786 4.45475 16.7786 5.01759V8.6037C16.7786 9.24767 16.7786 9.77915 16.7432 10.2121C16.7065 10.6618 16.6276 11.0751 16.4298 11.4634C16.2762 11.7648 16.0769 12.0379 15.8406 12.2741C15.836 12.2788 15.8312 12.2835 15.8264 12.2882C15.5938 12.5177 15.3261 12.7117 15.0313 12.8619C14.6431 13.0597 14.2297 13.1385 13.78 13.1753C13.3471 13.2107 12.8156 13.2107 12.1716 13.2106H5.38554C4.74156 13.2107 4.21006 13.2107 3.7771 13.1753C3.32743 13.1385 2.91406 13.0597 2.5258 12.8619C2.23193 12.7121 1.96489 12.5189 1.73281 12.2902C1.72799 12.2856 1.72322 12.2809 1.71854 12.2761C1.48135 12.0395 1.28133 11.7656 1.12734 11.4634C0.929512 11.0751 0.85066 10.6618 0.81392 10.2121C0.778546 9.77915 0.778555 9.24766 0.778565 8.60368V5.01761C0.778556 4.45483 0.778548 3.97796 0.802156 3.57769C0.802597 3.56672 0.803266 3.55574 0.804161 3.54478C0.807071 3.49854 0.810312 3.45335 0.81392 3.40918C0.85066 2.95951 0.929512 2.54614 1.12734 2.15788C1.43414 1.55576 1.92368 1.06622 2.5258 0.759424C2.91406 0.561592 3.32743 0.48274 3.7771 0.446C4.21006 0.410626 4.74155 0.410635 5.38553 0.410645ZM2.37857 5.09095V8.57064C2.37857 9.25591 2.37919 9.72174 2.40861 10.0818C2.41512 10.1616 2.42284 10.2325 2.43163 10.2959L5.20062 6.97428L2.37857 5.09095ZM6.53905 7.8675L3.49325 11.5211C3.59786 11.5459 3.73094 11.5662 3.9074 11.5806C4.26747 11.61 4.7333 11.6106 5.41856 11.6106H12.1386C12.8238 11.6106 13.2897 11.61 13.6497 11.5806C13.8273 11.5661 13.961 11.5456 14.0659 11.5207L11.0324 7.88433L10.6597 8.13489C10.6298 8.1548 10.6001 8.17458 10.5707 8.1942C10.1481 8.4759 9.7769 8.72343 9.35774 8.82363C8.99089 8.91133 8.60853 8.91133 8.24168 8.82363C7.82252 8.72343 7.45127 8.4759 7.02877 8.1942C6.99934 8.17458 6.96966 8.15479 6.9397 8.13488L6.53905 7.8675ZM10.8407 6.08527C10.7793 6.11391 10.7206 6.15088 10.6661 6.19633C10.6556 6.20512 10.6453 6.21412 10.6353 6.22333L9.774 6.8024C9.77344 6.80277 9.77288 6.80314 9.77232 6.80352C9.20933 7.17771 9.09074 7.24238 8.98572 7.26748C8.86344 7.29672 8.73599 7.29672 8.6137 7.26748C8.50861 7.24236 8.38992 7.17762 7.82593 6.80274C7.8261 6.80285 7.82576 6.80262 7.82593 6.80274L2.44939 3.21464C2.47731 3.06345 2.51279 2.96309 2.55295 2.88426C2.70635 2.5832 2.95112 2.33843 3.25218 2.18503C3.3773 2.12128 3.55666 2.06934 3.9074 2.04069C4.26747 2.01127 4.7333 2.01065 5.41857 2.01065H12.1386C12.8238 2.01065 13.2897 2.01127 13.6497 2.04069C14.0005 2.06934 14.1798 2.12128 14.3049 2.18503C14.606 2.33843 14.8508 2.5832 15.0042 2.88426C15.0445 2.9634 15.0801 3.06423 15.1081 3.2164L10.8407 6.08527ZM12.3674 6.98686L15.1258 10.2935C15.1345 10.2307 15.1421 10.1606 15.1485 10.0818C15.1779 9.72174 15.1786 9.25591 15.1786 8.57064V5.09696L12.3674 6.98686Z" fill="#C0C0C0"/>
</svg>
