<svg width="18" height="18" viewBox="0 0 18 18" fill="none" xmlns="http://www.w3.org/2000/svg">
<path d="M3.72027 9.38206L6.23539 6.31756C6.49205 5.98757 6.62039 5.82256 6.68764 5.63751C6.74715 5.47377 6.77177 5.29939 6.75992 5.12557C6.74654 4.92913 6.66891 4.73505 6.51364 4.3469L5.9214 2.86628C5.69162 2.29185 5.57674 2.00464 5.37855 1.81638C5.20391 1.65049 4.98507 1.53859 4.74833 1.49414C4.47968 1.4437 4.17958 1.51872 3.57937 1.66878L1.93993 2.07869C1.93993 10.412 7.77301 16.2454 16.1066 16.2454L16.5163 14.6057C16.6663 14.0055 16.7414 13.7054 16.6909 13.4367C16.6465 13.2 16.5346 12.9811 16.3687 12.8065C16.1804 12.6083 15.8932 12.4934 15.3188 12.2637L13.9975 11.7351C13.5547 11.558 13.3333 11.4695 13.1125 11.4627C12.9174 11.4567 12.7236 11.4964 12.5466 11.5788C12.3464 11.672 12.1777 11.8406 11.8405 12.1779L9.29607 14.7231M10.273 4.57869C11.087 4.7375 11.835 5.13558 12.4214 5.72197C13.0078 6.30837 13.4059 7.05642 13.5647 7.87036M10.273 1.24536C11.9641 1.43322 13.541 2.19051 14.7449 3.39287C15.9488 4.59523 16.708 6.1712 16.898 7.86203" stroke="#C0C0C0" stroke-width="2" stroke-linecap="round" stroke-linejoin="round"/>
</svg>
