<svg width="18" height="16" viewBox="0 0 18 16" fill="none" xmlns="http://www.w3.org/2000/svg">
<path d="M6.27856 7.01852L7.81703 8.5L11.2786 5.16667M16.2786 14.3333L13.5083 12.9482C13.2983 12.8432 13.1933 12.7907 13.0833 12.7537C12.9855 12.7208 12.885 12.6971 12.7829 12.6828C12.6679 12.6667 12.5505 12.6667 12.3157 12.6667H5.27856C3.87843 12.6667 3.17837 12.6667 2.64359 12.3942C2.17318 12.1545 1.79073 11.772 1.55105 11.3016C1.27856 10.7669 1.27856 10.0668 1.27856 8.66667V5C1.27856 3.59987 1.27856 2.8998 1.55105 2.36502C1.79073 1.89462 2.17318 1.51217 2.64359 1.27248C3.17837 1 3.87843 1 5.27856 1H12.2786C13.6787 1 14.3788 1 14.9135 1.27248C15.3839 1.51217 15.7664 1.89462 16.0061 2.36502C16.2786 2.8998 16.2786 3.59987 16.2786 5V14.3333Z" stroke="#8B8B8B" stroke-width="1.8" stroke-linecap="round" stroke-linejoin="round"/>
</svg>
