<svg width="17" height="16" viewBox="0 0 17 16" fill="none" xmlns="http://www.w3.org/2000/svg">
<path fill-rule="evenodd" clip-rule="evenodd" d="M11.3766 9.48924C11.603 9.35837 11.8917 9.43255 12.0275 9.65425L12.034 9.6651L14.1934 13.4016C12.7257 14.9975 10.6191 16 8.28157 16C8.06781 16 7.85615 15.99 7.64659 15.9733L7.57681 15.9674L11.2002 9.666C11.2424 9.59259 11.3033 9.53162 11.3766 9.48924ZM8.27107 11.3484C8.35487 11.3484 8.43722 11.3703 8.50997 11.4119C8.737 11.5417 8.81814 11.8285 8.69491 12.0574L8.68878 12.0685L6.57107 15.7713L6.75961 15.8797C4.22061 15.3933 2.10545 13.6992 1.03256 11.4177L1.00037 11.3484H8.27107ZM15.9019 5.57393C16.1459 6.3393 16.2786 7.15398 16.2786 7.99927C16.2786 9.69017 15.7501 11.2588 14.8521 12.5524L14.8247 12.5915L11.2001 6.29522C11.158 6.22219 11.1359 6.1394 11.1359 6.05514C11.1359 5.79347 11.3448 5.58058 11.6049 5.57409L11.6171 5.57393H15.9019ZM1.64926 3.52882L5.33064 9.61563C5.37608 9.69075 5.40009 9.77687 5.40009 9.86466C5.40009 10.1263 5.19123 10.3392 4.93112 10.3457L4.91889 10.3459H0.635757C0.403759 9.60045 0.278564 8.80875 0.278564 7.98844C0.278564 6.35437 0.774122 4.83371 1.62341 3.56713L1.64926 3.52882ZM8.27934 0C8.52099 0 8.75993 0.0113932 8.99616 0.0326877L9.06052 0.0387396L5.32892 6.39913C5.28823 6.46848 5.23082 6.52653 5.16192 6.56797C4.9378 6.70279 4.64789 6.63369 4.50817 6.4144L4.50153 6.40367L2.28358 2.71662C3.75054 1.05243 5.89395 0 8.27934 0ZM10.0809 0.200501C12.4668 0.754041 14.4466 2.38079 15.4855 4.54576L15.5167 4.61153H8.33623C8.25073 4.61153 8.16676 4.58874 8.09299 4.54552C7.86732 4.41331 7.78918 4.1257 7.9148 3.89805L7.92104 3.88708L10.0809 0.200501Z" fill="#C0C0C0"/>
</svg>
