<svg width="19" height="19" viewBox="0 0 19 19" fill="none" xmlns="http://www.w3.org/2000/svg">
<path id="Shape" fill-rule="evenodd" clip-rule="evenodd" d="M16.7481 8.93182C16.3718 5.52 13.6636 2.81182 10.2518 2.43545V0.75H8.61541V2.43545C5.20359 2.81182 2.49541 5.52 2.11905 8.93182H0.433594V10.5682H2.11905C2.49541 13.98 5.20359 16.6882 8.61541 17.0645V18.75H10.2518V17.0645C13.6636 16.6882 16.3718 13.98 16.7481 10.5682H18.4336V8.93182H16.7481ZM9.43359 6.47727C7.62541 6.47727 6.16087 7.94182 6.16087 9.75C6.16087 11.5582 7.62541 13.0227 9.43359 13.0227C11.2418 13.0227 12.7063 11.5582 12.7063 9.75C12.7063 7.94182 11.2418 6.47727 9.43359 6.47727ZM3.70632 9.75C3.70632 12.9123 6.27132 15.4773 9.43359 15.4773C12.5959 15.4773 15.1609 12.9123 15.1609 9.75C15.1609 6.58773 12.5959 4.02273 9.43359 4.02273C6.27132 4.02273 3.70632 6.58773 3.70632 9.75Z" fill="#1546B8"/>
</svg>
