<svg width="17" height="17" viewBox="0 0 17 17" fill="none" xmlns="http://www.w3.org/2000/svg">
<path fill-rule="evenodd" clip-rule="evenodd" d="M6.06196 4.62217C6.06196 3.20899 7.27804 2.06338 8.77814 2.06338C10.2782 2.06338 11.4943 3.20899 11.4943 4.62217C11.4943 6.03535 10.2782 7.18096 8.77814 7.18096C7.27804 7.18096 6.06196 6.03535 6.06196 4.62217ZM8.77814 0.367676C6.28392 0.367676 4.26196 2.27248 4.26196 4.62217C4.26196 6.17756 5.14795 7.538 6.47042 8.28005C3.17739 9.21328 0.778564 12.0918 0.778564 15.4981C0.778564 15.9783 1.19184 16.3677 1.70164 16.3677H15.8555C16.3653 16.3677 16.7786 15.9783 16.7786 15.4981C16.7786 12.0916 14.3795 9.21295 11.0861 8.27989C12.4085 7.53781 13.2943 6.17745 13.2943 4.62217C13.2943 2.27248 11.2724 0.367676 8.77814 0.367676ZM8.77856 9.70081C11.8635 9.70081 14.4183 11.8393 14.8636 14.6285H2.69349C3.13886 11.8393 5.69362 9.70081 8.77856 9.70081Z" fill="#C0C0C0"/>
</svg>
